<svg id="Layer_1" data-name="Layer 1" xmlns="http://www.w3.org/2000/svg" viewBox="0 0 191.27 219.22"><defs><style>.cls-1{fill:#bb8125;}.cls-1,.cls-2{stroke:#fff;stroke-miterlimit:10;}.cls-2,.cls-3{fill:#fbb040;}.cls-4{fill:#fff;}</style></defs><title>grande</title><path class="cls-1" d="M204.14,356H334.89a56.21,56.21,0,0,1,56.21,56.21V542.91a3.23,3.23,0,0,1-3.23,3.23h-168a18.93,18.93,0,0,1-18.93-18.93v-168A3.23,3.23,0,0,1,204.14,356Z" transform="translate(391.68 546.64) rotate(-180)"/><path class="cls-1" d="M204.06,363.52H329.37a56.21,56.21,0,0,1,56.21,56.21V545a3.23,3.23,0,0,1-3.23,3.23H219.76a18.93,18.93,0,0,1-18.93-18.93V366.75a3.23,3.23,0,0,1,3.23-3.23Z" transform="translate(386.08 556.34) rotate(-180)"/><path class="cls-2" d="M3.73,8.07H129a56.21,56.21,0,0,1,56.21,56.21V189.59a3.23,3.23,0,0,1-3.23,3.23H19.43A18.93,18.93,0,0,1,.5,173.9V11.3A3.23,3.23,0,0,1,3.73,8.07Z"/><path class="cls-3" d="M224.61,573.18a1.39,1.39,0,0,1-.39,1,1.35,1.35,0,0,1-1,.39h-5a1.4,1.4,0,0,1-1-.39,1.36,1.36,0,0,1-.4-1v-5h1.76V573h4.29V568.3l-5.48-6.62a2.3,2.3,0,0,1-.57-1.51v-4a1.36,1.36,0,0,1,.4-1,1.4,1.4,0,0,1,1-.39h5a1.35,1.35,0,0,1,1,.39,1.39,1.39,0,0,1,.39,1v4.62h-1.76V556.3h-4.29v4.19l5.51,6.62a2.26,2.26,0,0,1,.55,1.48v4.59Z" transform="translate(-200.33 -355.45)"/><path class="cls-3" d="M229.32,559.55h-1.71v-2.13h1.71v2.13Zm0,15h-1.66V562.25h1.66v12.34Z" transform="translate(-200.33 -355.45)"/><path class="cls-3" d="M238.81,573.16a1.27,1.27,0,0,1-1.43,1.43H233.5a1.27,1.27,0,0,1-1.43-1.43v-2.8h1.66v2.78h3.41v-2.46l-4.41-3.62a1.61,1.61,0,0,1-.63-1.32v-2.06a1.27,1.27,0,0,1,1.43-1.43h3.82a1.27,1.27,0,0,1,1.43,1.43v2.46h-1.64v-2.44h-3.41v2.16l4.45,3.62a1.63,1.63,0,0,1,.62,1.34v2.33Z" transform="translate(-200.33 -355.45)"/><path class="cls-3" d="M245.92,574.59h-2.4a1.26,1.26,0,0,1-1.42-1.43v-9.43h-1.48v-1.48h1.48V558.4h1.66v3.84h2.16v1.48h-2.16v9.37h2.16v1.48Z" transform="translate(-200.33 -355.45)"/><path class="cls-3" d="M255,573.16a1.26,1.26,0,0,1-1.42,1.43H249.5a1.26,1.26,0,0,1-1.42-1.43v-9.48a1.26,1.26,0,0,1,1.42-1.43h4.06a1.26,1.26,0,0,1,1.42,1.43v4.44l-0.57.6h-4.69v4.47h3.63v-2.26H255v2.23Zm-1.64-5.78v-3.72h-3.63v3.72h3.63Z" transform="translate(-200.33 -355.45)"/><path class="cls-3" d="M270.18,574.59h-1.69V563.76l-3.68.1v10.73h-1.67V563.76l-3.68.1v10.73h-1.69V562.25h1.69v0.34l2-.27a16.46,16.46,0,0,1,2-.15,1.36,1.36,0,0,1,1.14.47l2.12-.29a17.72,17.72,0,0,1,2.09-.18,1.23,1.23,0,0,1,1.4,1.38v11Z" transform="translate(-200.33 -355.45)"/><path class="cls-3" d="M279.9,574.59h-1.66v-0.34l-2,.27a17.22,17.22,0,0,1-2,.15,1.22,1.22,0,0,1-1.38-1.37v-4.5a1.26,1.26,0,0,1,1.43-1.42h4v-3.72h-3.63v2.11H273v-2.08a1.26,1.26,0,0,1,1.42-1.43h4.06a1.26,1.26,0,0,1,1.42,1.43v10.91Zm-1.64-1.53v-4.36h-3.77v4.44Z" transform="translate(-200.33 -355.45)"/><path class="cls-3" d="M294.76,574.59h-1.67v-0.34q-2.72.42-3,.42a2.23,2.23,0,0,1-1.74-.73,2.6,2.6,0,0,1-.66-1.82V564.9a2.59,2.59,0,0,1,.75-1.9,2.54,2.54,0,0,1,1.88-.75h2.78v-7.51h1.67v19.85Zm-1.67-1.53v-9.32h-2.33a1.25,1.25,0,0,0-1.4,1.43v6.6a1.25,1.25,0,0,0,1.4,1.42Q291.08,573.18,293.09,573.06Z" transform="translate(-200.33 -355.45)"/><path class="cls-3" d="M304.44,573.16a1.26,1.26,0,0,1-1.42,1.43H299a1.26,1.26,0,0,1-1.42-1.43v-9.48a1.26,1.26,0,0,1,1.42-1.43H303a1.26,1.26,0,0,1,1.42,1.43v4.44l-0.57.6h-4.69v4.47h3.63v-2.26h1.64v2.23Zm-1.64-5.78v-3.72h-3.63v3.72h3.63Z" transform="translate(-200.33 -355.45)"/><path class="cls-3" d="M320.48,573.18a1.35,1.35,0,0,1-.41,1,1.42,1.42,0,0,1-1,.39h-5.11a1.35,1.35,0,0,1-1.41-1.41v-17a1.35,1.35,0,0,1,1.41-1.41H319a1.42,1.42,0,0,1,1,.39,1.35,1.35,0,0,1,.41,1v4.62H318.7V556.3h-4.41V573h4.41v-4.88h1.78v5Z" transform="translate(-200.33 -355.45)"/><path class="cls-3" d="M329.81,566.31h-1.66v-2.55l-3.11.1v10.73h-1.69V562.25H325v0.34l1.69-.27a11.76,11.76,0,0,1,1.69-.15,1.23,1.23,0,0,1,1.4,1.38v2.75Z" transform="translate(-200.33 -355.45)"/><path class="cls-3" d="M338.86,573.16a1.26,1.26,0,0,1-1.42,1.43h-4.06a1.26,1.26,0,0,1-1.42-1.43v-9.48a1.26,1.26,0,0,1,1.42-1.43h4.06a1.26,1.26,0,0,1,1.42,1.43v4.44l-0.57.6h-4.69v4.47h3.63v-2.26h1.64v2.23Zm-1.64-5.78v-3.72h-3.63v3.72h3.63Z" transform="translate(-200.33 -355.45)"/><path class="cls-3" d="M348.66,574.59H347v-0.34q-2.72.42-3,.42a2.23,2.23,0,0,1-1.74-.73,2.6,2.6,0,0,1-.66-1.82V564.9a2.59,2.59,0,0,1,.75-1.9,2.54,2.54,0,0,1,1.88-.75H347v-7.51h1.67v19.85ZM347,573.06v-9.32h-2.33a1.25,1.25,0,0,0-1.4,1.43v6.6a1.25,1.25,0,0,0,1.4,1.42Q345,573.18,347,573.06Z" transform="translate(-200.33 -355.45)"/><path class="cls-3" d="M353.23,559.55h-1.71v-2.13h1.71v2.13Zm0,15h-1.66V562.25h1.66v12.34Z" transform="translate(-200.33 -355.45)"/><path class="cls-3" d="M360.51,574.59h-2.4a1.26,1.26,0,0,1-1.42-1.43v-9.43h-1.48v-1.48h1.48V558.4h1.66v3.84h2.16v1.48h-2.16v9.37h2.16v1.48Z" transform="translate(-200.33 -355.45)"/><path class="cls-3" d="M369.76,573.16a1.27,1.27,0,0,1-1.43,1.43h-4.24a1.26,1.26,0,0,1-1.42-1.43v-9.48a1.26,1.26,0,0,1,1.42-1.43h4.24a1.27,1.27,0,0,1,1.43,1.43v9.48Zm-1.69-.05v-9.37h-3.72v9.37h3.72Z" transform="translate(-200.33 -355.45)"/><path class="cls-4" d="M249.3,503.14V465.47a3.12,3.12,0,0,1,4.72-2.69l6.37,3.77a3.12,3.12,0,0,1,1.53,2.69v35.51a3.12,3.12,0,0,0,4.71,2.69h0a3.12,3.12,0,0,0,1.54-2.69V453a3.12,3.12,0,0,0-1.56-2.7l-15.74-9.1a3.12,3.12,0,0,1-1.56-2.7v-26a3.12,3.12,0,0,1,1.56-2.7l15.75-9.1a3.12,3.12,0,0,1,3.12,0l9.49,5.43a3.12,3.12,0,0,1,1.57,2.71v23.79a3.12,3.12,0,0,1-4.68,2.71l-6.37-3.65a3.12,3.12,0,0,1-1.57-2.71V407.15a3.12,3.12,0,0,0-4.71-2.69h0a3.12,3.12,0,0,0-1.54,2.69v36.59a3.12,3.12,0,0,0,1.56,2.7l15.74,9.1a3.12,3.12,0,0,1,1.56,2.7v41.23a3.12,3.12,0,0,1-1.56,2.7l-15.75,9.1a3.12,3.12,0,0,1-3.12,0l-9.49-5.43A3.12,3.12,0,0,1,249.3,503.14Z" transform="translate(-200.33 -355.45)"/><path class="cls-4" d="M288.47,409.61l6.37-3.65a3.12,3.12,0,0,1,4.68,2.71v98.12a3.12,3.12,0,0,1-4.68,2.71l-6.37-3.65a3.12,3.12,0,0,1-1.57-2.71V412.32A3.12,3.12,0,0,1,288.47,409.61Z" transform="translate(-200.33 -355.45)"/><path class="cls-4" d="M318.26,454.22v52.57a3.12,3.12,0,0,1-4.68,2.71l-6.37-3.65a3.12,3.12,0,0,1-1.57-2.71V459.5l-3.06,1.71v-2l1.46-.82a3.12,3.12,0,0,0,1.6-2.73V412.42a3.12,3.12,0,0,1,1.55-2.7l15.74-9.2a3.12,3.12,0,0,1,3.15,0l9.49,5.53a3.12,3.12,0,0,1,1.55,2.7v90.73a3.12,3.12,0,0,1-1.55,2.7l-6.37,3.71a3.12,3.12,0,0,1-4.7-2.7v-49a3.12,3.12,0,0,0-4.67-2.71h0A3.12,3.12,0,0,0,318.26,454.22Zm4.67-6.43h0a3.12,3.12,0,0,0,1.58-2.71V407a3.12,3.12,0,0,0-4.71-2.69h0a3.12,3.12,0,0,0-1.54,2.69v38A3.12,3.12,0,0,0,322.92,447.78Z" transform="translate(-200.33 -355.45)"/></svg>