<svg id="Layer_1" data-name="Layer 1" xmlns="http://www.w3.org/2000/svg" viewBox="0 0 62.24 62.9"><defs><style>.cls-1{fill:#bb8125;}.cls-1,.cls-2{stroke:#fff;stroke-miterlimit:10;}.cls-2{fill:#fbb040;}.cls-3{fill:#fff;}</style></defs><title>little</title><path class="cls-1" d="M204.09,356h1.78a56.21,56.21,0,0,1,56.21,56.21v1.78a3.23,3.23,0,0,1-3.23,3.23H219.78a18.93,18.93,0,0,1-18.93-18.93V359.18a3.23,3.23,0,0,1,3.23-3.23Z" transform="translate(262.6 417.67) rotate(-180)"/><path class="cls-1" d="M204.06,358.39h0A56.21,56.21,0,0,1,260.3,414.6v0a3.23,3.23,0,0,1-3.23,3.23H219.76a18.93,18.93,0,0,1-18.93-18.93V361.62a3.23,3.23,0,0,1,3.23-3.23Z" transform="translate(260.8 420.79) rotate(-180)"/><path class="cls-2" d="M3.73,2.94h0A56.21,56.21,0,0,1,60,59.15v0a3.23,3.23,0,0,1-3.23,3.23H19.43A18.93,18.93,0,0,1,.5,43.48V6.17A3.23,3.23,0,0,1,3.73,2.94Z"/><path class="cls-3" d="M216.43,403.33V391.2a1,1,0,0,1,1.52-.87l2.05,1.21a1,1,0,0,1,.49.87v11.43a1,1,0,0,0,1.52.87h0a1,1,0,0,0,.5-0.87V387.18a1,1,0,0,0-.5-0.87l-5.07-2.93a1,1,0,0,1-.5-0.87v-8.38a1,1,0,0,1,.5-0.87l5.07-2.93a1,1,0,0,1,1,0l3.05,1.75a1,1,0,0,1,.51.87v7.66a1,1,0,0,1-1.51.87L223,380.31a1,1,0,0,1-.51-0.87v-7a1,1,0,0,0-1.52-.87h0a1,1,0,0,0-.5.87v11.78a1,1,0,0,0,.5.87l5.07,2.93a1,1,0,0,1,.5.87v13.27a1,1,0,0,1-.5.87L221,405.95a1,1,0,0,1-1,0l-3.05-1.75A1,1,0,0,1,216.43,403.33Z" transform="translate(-200.33 -355.45)"/><path class="cls-3" d="M229,373.22l2.05-1.17a1,1,0,0,1,1.51.87V404.5a1,1,0,0,1-1.51.87L229,404.2a1,1,0,0,1-.51-0.87V374.09A1,1,0,0,1,229,373.22Z" transform="translate(-200.33 -355.45)"/><path class="cls-3" d="M238.63,387.58V404.5a1,1,0,0,1-1.51.87l-2.05-1.17a1,1,0,0,1-.51-0.87v-14l-1,.55V389.2l0.47-.26a1,1,0,0,0,.51-0.88V374.13a1,1,0,0,1,.5-0.87l5.07-3a1,1,0,0,1,1,0l3.05,1.78a1,1,0,0,1,.5.87v29.2a1,1,0,0,1-.5.87l-2.05,1.19a1,1,0,0,1-1.51-.87V387.58a1,1,0,0,0-1.5-.87h0A1,1,0,0,0,238.63,387.58Zm1.5-2.07h0a1,1,0,0,0,.51-0.87V372.39a1,1,0,0,0-1.52-.87h0a1,1,0,0,0-.5.87v12.25A1,1,0,0,0,240.13,385.51Z" transform="translate(-200.33 -355.45)"/></svg>