<svg id="Layer_1" data-name="Layer 1" xmlns="http://www.w3.org/2000/svg" viewBox="0 0 881.68 999.79"><defs><style>.cls-1{fill:#fbb040;}.cls-2{fill:#fff;}</style></defs><title>SiaSysCredit</title><path class="cls-1" d="M994.33,318.37V644.29c0,124.21,101.06,225.27,225.27,225.27h325.92C1267.22,816.56,1047.33,596.67,994.33,318.37Z" transform="translate(-982.11 -0.11)"/><path class="cls-1" d="M1626.28,12.33H1300.36c278.31,53,498.19,272.88,551.19,551.19V237.62C1851.56,113.39,1750.5,12.33,1626.28,12.33Z" transform="translate(-982.11 -0.11)"/><path class="cls-1" d="M1170.36,12.33H1027.68a33.39,33.39,0,0,0-33.35,33.36V188.36c0,375.62,305.58,681.19,681.19,681.19H1818.2a33.39,33.39,0,0,0,33.36-33.35V693.53C1851.56,317.91,1546,12.33,1170.36,12.33Z" transform="translate(-982.11 -0.11)"/><path class="cls-2" d="M1679.95,6.22A237.36,237.36,0,0,0,1626.28.11H1170.36a696.76,696.76,0,0,1,92.19,6.12h417.39Z" transform="translate(-982.11 -0.11)"/><path class="cls-2" d="M1857.66,183.94V601.32a696.76,696.76,0,0,1,6.12,92.2V237.62A237.36,237.36,0,0,0,1857.66,183.94Z" transform="translate(-982.11 -0.11)"/><path class="cls-1" d="M994.33,188.36v130c53,278.31,272.88,498.19,551.19,551.19h130C1299.91,869.56,994.33,564,994.33,188.36Z" transform="translate(-982.11 -0.11)"/><path class="cls-2" d="M1300.36,12.33h325.91c124.22,0,225.28,101.06,225.28,225.28V563.53q3.57,18.73,6.11,37.8V183.94A238.33,238.33,0,0,0,1679.95,6.22H1262.56Q1281.63,8.77,1300.36,12.33Z" transform="translate(-982.11 -0.11)"/><path class="cls-2" d="M982.11,188.36V644.29a237.37,237.37,0,0,0,6.11,53.64V280.5A696.75,696.75,0,0,1,982.11,188.36Z" transform="translate(-982.11 -0.11)"/><path class="cls-2" d="M1166,875.67a237.37,237.37,0,0,0,53.65,6.11h455.92a696.76,696.76,0,0,1-92.15-6.11H1166Z" transform="translate(-982.11 -0.11)"/><path class="cls-2" d="M1300.36,12.33h-130c375.62,0,681.19,305.58,681.19,681.19v-130C1798.56,285.22,1578.67,65.33,1300.36,12.33Z" transform="translate(-982.11 -0.11)"/><path class="cls-2" d="M1545.53,869.56H1219.6c-124.21,0-225.27-101.06-225.27-225.27V318.37q-3.57-18.76-6.12-37.86V697.93A238.3,238.3,0,0,0,1166,875.67h417.42Q1564.28,873.13,1545.53,869.56Z" transform="translate(-982.11 -0.11)"/><path class="cls-2" d="M1857.66,859a45.27,45.27,0,0,0,6.12-22.76V693.53a696.76,696.76,0,0,0-6.12-92.2V859Z" transform="translate(-982.11 -0.11)"/><path class="cls-2" d="M1675.53,881.78H1818.2a45.3,45.3,0,0,0,22.76-6.11H1583.38A696.76,696.76,0,0,0,1675.53,881.78Z" transform="translate(-982.11 -0.11)"/><path class="cls-2" d="M1170.36,0.11H1027.68a45.27,45.27,0,0,0-22.76,6.12h257.64A696.76,696.76,0,0,0,1170.36.11Z" transform="translate(-982.11 -0.11)"/><path class="cls-2" d="M988.22,22.94a45.3,45.3,0,0,0-6.11,22.76V188.36a696.75,696.75,0,0,0,6.11,92.14V22.94Z" transform="translate(-982.11 -0.11)"/><path class="cls-2" d="M1851.56,563.53V836.21a33.39,33.39,0,0,1-33.36,33.35H1545.53q18.75,3.57,37.85,6.12H1841a45.9,45.9,0,0,0,16.71-16.7V601.32Q1855.12,582.26,1851.56,563.53Z" transform="translate(-982.11 -0.11)"/><path class="cls-2" d="M994.33,318.37V45.69a33.39,33.39,0,0,1,33.35-33.36h272.68q-18.73-3.57-37.81-6.11H1004.92a45.9,45.9,0,0,0-16.7,16.71V280.5Q990.76,299.6,994.33,318.37Z" transform="translate(-982.11 -0.11)"/><path class="cls-1" d="M1099.79,992.91a6.53,6.53,0,0,1-1.82,4.78,6.37,6.37,0,0,1-4.75,1.85H1069.7a6.58,6.58,0,0,1-4.81-1.85,6.41,6.41,0,0,1-1.88-4.78v-23.7h8.3v23h20.18V969.92l-25.79-31.16a10.84,10.84,0,0,1-2.69-7.1V912.73a6.41,6.41,0,0,1,1.88-4.78,6.58,6.58,0,0,1,4.81-1.85h23.52A6.37,6.37,0,0,1,1098,908a6.53,6.53,0,0,1,1.82,4.78v21.73h-8.3v-21h-20.18v19.7l25.91,31.16a10.65,10.65,0,0,1,2.57,7v21.61Z" transform="translate(-982.11 -0.11)"/><path class="cls-1" d="M1121.94,928.73h-8.06v-10h8.06v10Zm-0.12,70.8H1114V941.45h7.82v58.09Z" transform="translate(-982.11 -0.11)"/><path class="cls-1" d="M1166.6,992.79c0,4.5-2.26,6.75-6.75,6.75h-18.21q-6.75,0-6.75-6.75V979.6h7.82v13.07h16.06V981.09l-20.78-17a7.57,7.57,0,0,1-3-6.21v-9.67q0-6.75,6.75-6.75h18c4.49,0,6.75,2.24,6.75,6.75v11.58h-7.7V948.31h-16.06v10.15l21,17a7.67,7.67,0,0,1,2.93,6.33v11Z" transform="translate(-982.11 -0.11)"/><path class="cls-1" d="M1200.09,999.53H1188.8c-4.47,0-6.69-2.24-6.69-6.75V948.43h-7v-7h7V923.36h7.82v18.09h10.15v7h-10.15v44.12h10.15v7Z" transform="translate(-982.11 -0.11)"/><path class="cls-1" d="M1242.71,992.79q0,6.75-6.69,6.75h-19.1c-4.47,0-6.69-2.24-6.69-6.75v-44.6c0-4.5,2.22-6.75,6.69-6.75H1236q6.68,0,6.69,6.75v20.89l-2.69,2.81h-22.09v21H1235V982.28h7.7v10.51Zm-7.7-27.22V948.07h-17.07v17.49H1235Z" transform="translate(-982.11 -0.11)"/><path class="cls-1" d="M1314.23,999.53h-7.94v-51L1289,949v50.51h-7.88v-51l-17.31.48v50.51h-7.94V941.45h7.94v1.61q4.66-.59,9.31-1.25a77.31,77.31,0,0,1,9.37-.72,6.43,6.43,0,0,1,5.37,2.21q5-.66,10-1.37a83.21,83.21,0,0,1,9.85-.84c4.37,0,6.57,2.17,6.57,6.51v51.94Z" transform="translate(-982.11 -0.11)"/><path class="cls-1" d="M1360,999.53h-7.82v-1.61q-4.73.66-9.43,1.25a81.24,81.24,0,0,1-9.37.72c-4.35,0-6.51-2.15-6.51-6.45V972.25q0-6.68,6.75-6.69h18.69V948.07h-17.07V958h-7.7v-9.79c0-4.5,2.22-6.75,6.69-6.75h19.1q6.68,0,6.69,6.75v51.34Zm-7.7-7.22V971.77h-17.73v20.89Z" transform="translate(-982.11 -0.11)"/><path class="cls-1" d="M1429.93,999.53H1422v-1.61q-12.79,2-14.15,2a10.47,10.47,0,0,1-8.18-3.44,12.22,12.22,0,0,1-3.1-8.56v-34a12.17,12.17,0,0,1,3.52-8.93,11.92,11.92,0,0,1,8.84-3.55H1422V906.11h7.88v93.43Zm-7.88-7.22V948.43h-11q-6.57,0-6.57,6.75v31q0,6.68,6.57,6.69Q1412.61,992.91,1422,992.31Z" transform="translate(-982.11 -0.11)"/><path class="cls-1" d="M1475.48,992.79q0,6.75-6.69,6.75h-19.1c-4.47,0-6.69-2.24-6.69-6.75v-44.6c0-4.5,2.22-6.75,6.69-6.75h19.1q6.68,0,6.69,6.75v20.89l-2.69,2.81h-22.09v21h17.07V982.28h7.7v10.51Zm-7.7-27.22V948.07h-17.07v17.49h17.07Z" transform="translate(-982.11 -0.11)"/><path class="cls-1" d="M1550.94,992.91a6.39,6.39,0,0,1-1.91,4.78,6.7,6.7,0,0,1-4.84,1.85h-24.06a6.34,6.34,0,0,1-6.63-6.63V912.73a6.34,6.34,0,0,1,6.63-6.63h24.06A6.7,6.7,0,0,1,1549,908a6.39,6.39,0,0,1,1.91,4.78v21.73h-8.36v-21h-20.78v78.74h20.78v-23h8.36v23.7Z" transform="translate(-982.11 -0.11)"/><path class="cls-1" d="M1594.88,960.55h-7.82v-12l-14.63.48v50.51h-7.94V941.45h7.94v1.61c2.63-.39,5.27-0.81,7.94-1.25a55.2,55.2,0,0,1,7.94-.72c4.37,0,6.57,2.17,6.57,6.51v13Z" transform="translate(-982.11 -0.11)"/><path class="cls-1" d="M1637.44,992.79q0,6.75-6.69,6.75h-19.1c-4.47,0-6.69-2.24-6.69-6.75v-44.6c0-4.5,2.22-6.75,6.69-6.75h19.1q6.68,0,6.69,6.75v20.89l-2.69,2.81h-22.09v21h17.07V982.28h7.7v10.51Zm-7.7-27.22V948.07h-17.07v17.49h17.07Z" transform="translate(-982.11 -0.11)"/><path class="cls-1" d="M1683.59,999.53h-7.88v-1.61q-12.79,2-14.15,2a10.47,10.47,0,0,1-8.18-3.44,12.22,12.22,0,0,1-3.1-8.56v-34a12.17,12.17,0,0,1,3.52-8.93,11.92,11.92,0,0,1,8.84-3.55h13.07V906.11h7.88v93.43Zm-7.88-7.22V948.43h-11q-6.57,0-6.57,6.75v31q0,6.68,6.57,6.69Q1666.27,992.91,1675.71,992.31Z" transform="translate(-982.11 -0.11)"/><path class="cls-1" d="M1705.08,928.73H1697v-10h8.06v10Zm-0.12,70.8h-7.82V941.45H1705v58.09Z" transform="translate(-982.11 -0.11)"/><path class="cls-1" d="M1739.35,999.53h-11.28c-4.47,0-6.69-2.24-6.69-6.75V948.43h-7v-7h7V923.36h7.82v18.09h10.15v7H1729.2v44.12h10.15v7Z" transform="translate(-982.11 -0.11)"/><path class="cls-1" d="M1782.87,992.79c0,4.5-2.26,6.75-6.75,6.75h-19.94c-4.47,0-6.69-2.24-6.69-6.75v-44.6c0-4.5,2.22-6.75,6.69-6.75h19.94c4.49,0,6.75,2.24,6.75,6.75v44.6Zm-7.94-.24V948.43h-17.49v44.12h17.49Z" transform="translate(-982.11 -0.11)"/><path class="cls-2" d="M1216.29,663.27V486a14.7,14.7,0,0,1,22.19-12.65l30,17.75a14.7,14.7,0,0,1,7.21,12.65V670.88a14.7,14.7,0,0,0,22.15,12.67h0a14.7,14.7,0,0,0,7.25-12.67V427.21a14.7,14.7,0,0,0-7.34-12.73l-74.09-42.82a14.7,14.7,0,0,1-7.34-12.73V236.39a14.7,14.7,0,0,1,7.34-12.73l74.11-42.83a14.7,14.7,0,0,1,14.66,0L1357,206.38a14.7,14.7,0,0,1,7.39,12.76v112a14.7,14.7,0,0,1-22,12.75l-30-17.17a14.7,14.7,0,0,1-7.39-12.75V211.53a14.7,14.7,0,0,0-22.15-12.67h0a14.7,14.7,0,0,0-7.25,12.67V383.72a14.7,14.7,0,0,0,7.34,12.73l74.09,42.81a14.7,14.7,0,0,1,7.34,12.73V646a14.7,14.7,0,0,1-7.34,12.73L1283,701.57a14.7,14.7,0,0,1-14.66,0L1223.68,676A14.7,14.7,0,0,1,1216.29,663.27Z" transform="translate(-982.11 -0.11)"/><path class="cls-2" d="M1400.65,223.1l30-17.17a14.7,14.7,0,0,1,22,12.76V680.45a14.7,14.7,0,0,1-22,12.75l-30-17.17a14.7,14.7,0,0,1-7.39-12.75V235.85A14.7,14.7,0,0,1,1400.65,223.1Z" transform="translate(-982.11 -0.11)"/><path class="cls-2" d="M1540.83,433V680.45a14.7,14.7,0,0,1-22,12.75l-30-17.17a14.7,14.7,0,0,1-7.39-12.75V457.92L1467,466v-9.23l6.89-3.86a14.7,14.7,0,0,0,7.52-12.83V236.34a14.7,14.7,0,0,1,7.28-12.69l74.09-43.29a14.7,14.7,0,0,1,14.81,0l44.66,26a14.7,14.7,0,0,1,7.3,12.7V646a14.7,14.7,0,0,1-7.3,12.7l-30,17.46a14.7,14.7,0,0,1-22.1-12.7V433a14.7,14.7,0,0,0-22-12.78h0A14.7,14.7,0,0,0,1540.83,433Zm22-30.27h0a14.7,14.7,0,0,0,7.43-12.78v-179a14.7,14.7,0,0,0-22.15-12.67h0a14.7,14.7,0,0,0-7.25,12.67V390A14.7,14.7,0,0,0,1562.79,402.77Z" transform="translate(-982.11 -0.11)"/><rect class="cls-1" x="12.23" y="196.12" width="87.88" height="386.56"/><rect class="cls-1" x="83.78" y="528.85" width="135.15" height="242.41"/><rect class="cls-1" x="266.6" y="770.2" width="378.98" height="99.25"/><polygon class="cls-1" points="188.26 719.49 318.26 809.24 356.7 749.31 238.52 685.19 202.61 626.42 188.26 719.49"/></svg>